<?xml version="1.0" encoding="UTF-8"?>
<svg id="Calque_1" xmlns="http://www.w3.org/2000/svg" version="1.1" viewBox="0 0 2048 2048">
  <!-- Generator: Adobe Illustrator 29.6.0, SVG Export Plug-In . SVG Version: 2.1.1 Build 207)  -->
  <defs>
    <style>
      .st0 {
        font-family: MyriadPro-Regular, 'Myriad Pro';
        font-size: 20.7px;
        letter-spacing: 2.8em;
      }

      .st0, .st1 {
        isolation: isolate;
      }

      .st2 {
        fill: #fff;
      }

      .st3 {
        fill: #e60000;
      }
    </style>
  </defs>
  <g class="st1">
    <text class="st0" transform="translate(899.5 832.7)"><tspan x="0" y="0" xml:space="preserve">    </tspan></text>
  </g>
  <g>
    <path class="st2" d="M453.3,526h112.8v112.8h-146.4v345.9h-111.9v-345.9h-146.4v-112.8h291.9Z"/>
    <path class="st2" d="M893.5,526h112.8v458.8h-404.7v-458.8h291.9ZM893.5,811.4v-172.5h-179v234h179v-61.5h0Z"/>
    <path class="st2" d="M1399.8,812.3c9.9,10,25.5,25.5,46.6,46.6v125.9h-111.9v-.9h-.9v-128.7c-9.9-9.3-24.6-23.6-43.8-42.9h-136.1v172.5h-111.9v-456.9h111.9v172.5h135.2c9.9-9.9,24.9-24.9,44.8-44.8v-129.6c24.9.6,62.2,1.2,111.9,1.9v126.8c-22.4,23-56.3,56.9-101.6,101.6v.9c12.4,12.4,30.8,30.8,55,55h.9Z"/>
    <path class="st2" d="M1773.7,526h112.8v458.8h-404.7v-458.8h112.8v346.9h179v-346.9h0Z"/>
  </g>
  <g>
    <path class="st3" d="M271,1013h291.9v112.8h-291.9v345.9h-112.8v-458.8h112.8,0ZM295.3,1186.5h244.3v111.9h-244.3v-111.9h0Z"/>
    <path class="st3" d="M896.7,1013h112.8v458.8h-404.7v-458.8h291.9ZM896.7,1298.4v-172.5h-179v234.1h179v-61.5h0Z"/>
    <path class="st3" d="M1449.7,1013v458.8h-146.4c-12.4-12.4-31.1-31.1-55.9-55.9-12.4-12.4-31.1-31.1-55.9-55.9v-234.1l-33.6-33.6v379.5h-112.8v-458.8h146.4c12.4,13.1,31.1,32,55.9,56.9,12.4,12.4,31.1,31.1,55.9,55.9v234.1c7.5,7.5,18.7,18.3,33.6,32.6v.9-380.5h112.8ZM1157.8,1471.8h-112.8,112.8ZM1157.8,1471.8h-112.8,112.8ZM1191.4,1125.9l-33.6-33.6v33.6-33.6l33.6,33.6ZM1336.8,1125.9v-33.6,33.6ZM1336.8,1125.9v-33.6,33.6ZM1336.8,1125.9v-33.6,33.6ZM1336.8,1393.5v-33.6,33.6ZM1336.8,1393.5v-33.6,33.6Z"/>
    <path class="st3" d="M1777,1013h112.8v112.8h-146.4v345.9h-111.9v-345.9h-146.4v-112.8h291.9Z"/>
  </g>
</svg>